<svg xmlns="http://www.w3.org/2000/svg" viewBox="0 0 32 32" preserveAspectRatio="xMidYMid meet">
  <title>locator.icon</title>
  <path d="M25.70866,11.094a9.9406,9.9406,0,0,0-2.53-4.49511c-.027-.02763-.04981-.058-.07679-.08566-.02837-.02832-.06019-.05181-.08855-.08013A9.95556,9.95556,0,0,0,18.50669,3.9033a9.79611,9.79611,0,0,0-4.9971,0,9.95331,9.95331,0,0,0-4.5059,2.52975c-.02906.02832-.06019.05181-.08855.08013-.02767.02763-.0505.058-.07748.08566A9.9328,9.9328,0,0,0,6.30831,11.094a10.06419,10.06419,0,0,0,0,5.00424A9.93146,9.93146,0,0,0,8.83765,20.594c.027.02763.04981.058.07748.085.02837.029.0595.0525.08855.08082l7.0048,6.99447,7.0048-6.99447c.02837-.02832.06019-.05181.08855-.08082.027-.02694.04981-.05734.07679-.085a9.93926,9.93926,0,0,0,2.53-4.4958,10.06422,10.06422,0,0,0,0-5.00424m-4.20385,8.54915-3.15475,3.1501-2.34158,2.33813-2.34223-2.33813L10.5115,19.64246l-.44679-.44613a8.07225,8.07225,0,0,1-.00065-10.97711l.44808-.44678a8.0764,8.0764,0,0,1,10.992-.00065l.44873.44807a8.0721,8.0721,0,0,1-.00065,10.97646Z"/>
  <circle cx="15.9996" cy="13.59769" r="2.00366"/>
</svg>
