<svg xmlns="http://www.w3.org/2000/svg" width="22.64947" height="22.61957" viewBox="0 0 22.64947 22.61957" preserveAspectRatio="xMidYMid meet">
  <title>login.icon.v3</title>
  <g>
    <path d="M11.39655,1.8c1.24313,0,2.29334,1.39823,2.29334,3.05329s-1.05022,3.05329-2.29334,3.05329S9.10321,6.50834,9.10321,4.85329,10.15343,1.8,11.39655,1.8m0-1.8C9.13586,0,7.30321,2.17289,7.30321,4.85329s1.83265,4.85329,4.09334,4.85329S15.4899,7.53368,15.4899,4.85329,13.65724,0,11.39655,0Z" opacity="0.85"/>
    <path d="M20.606,22.61957H16.32471a1,1,0,0,1,0-2H20.606l-2.377-6.2041a.28873.28873,0,0,0-.10547-.11719,47.03461,47.03461,0,0,0-6.7832-.585,48.40643,48.40643,0,0,0-6.957.6084h.00049c.0249,0-.00244.03418-.02246.085l-2.355,6.14551,4.31836.06738a1,1,0,0,1,0,2H2.043a2.04254,2.04254,0,0,1-1.90088-2.791l2.355-6.14551a2.07691,2.07691,0,0,1,1.57617-1.33789,50.4409,50.4409,0,0,1,7.26709-.63184,48.54187,48.54187,0,0,1,7.11816.61621,2.19071,2.19071,0,0,1,1.63184,1.35352l2.417,6.14551a2.04377,2.04377,0,0,1-1.90137,2.791Z" opacity="0.85"/>
  </g>
</svg>
